<?xml version="1.0" encoding="iso-8859-1"?>
<!-- Generator: Adobe Illustrator 19.0.0, SVG Export Plug-In . SVG Version: 6.00 Build 0)  -->
<svg version="1.1" id="Layer_1" xmlns="http://www.w3.org/2000/svg" xmlns:xlink="http://www.w3.org/1999/xlink" x="0px" y="0px"
	 viewBox="0 0 512.001 512.001" style="enable-background:new 0 0 512.001 512.001;" xml:space="preserve">
<path style="fill:#CD5838;" d="M332.204,512l1.855-10.439c3.369-18.958,16.02-34.653,33.841-41.982l5.972-2.457l75.228,0.012
	l5.975,2.468c17.479,7.219,30.438,23.284,33.82,41.927l1.9,10.471H332.204V512z"/>
<path style="fill:#B72C11;" d="M394.424,459.579l5.962-2.452l-26.515-0.004l-5.972,2.457c-17.821,7.329-30.472,23.022-33.841,41.982
	L332.204,512h26.526l1.855-10.439C363.953,482.602,376.604,466.907,394.424,459.579z"/>
<path style="fill:#5683BF;" d="M21.232,512l1.846-10.434c3.356-18.964,16.013-34.658,33.855-41.983l5.969-2.45l75.214,0.008
	l5.965,2.444c17.866,7.321,30.527,23.018,33.871,41.987L179.79,512H21.232z"/>
<path style="fill:#486D9A;" d="M83.459,459.584l5.962-2.448l-26.52-0.002l-5.969,2.45c-17.842,7.325-30.499,23.019-33.855,41.983
	L21.232,512h26.526l1.846-10.434C52.96,482.602,65.617,466.907,83.459,459.584z"/>
<path style="fill:#CD5838;" d="M411.489,478.681c-24.803,0-44.98-20.178-44.98-44.98c0-24.803,20.178-44.98,44.98-44.98
	c24.803,0,44.98,20.178,44.98,44.98C456.47,458.503,436.292,478.681,411.489,478.681z"/>
<path id="SVGCleanerId_0" style="fill:#5683BF;" d="M488.597,0H190c-12.906,0-23.404,10.499-23.404,23.404v44.344v177.701h177.701
	h24.301c4.932,0,9.439,2.498,12.054,6.682l21.964,35.143c1.73,2.797,4.715,4.466,7.983,4.466l0.415-0.002l0.285-0.023
	c3.373-0.237,6.27-2.174,7.762-5.188l16.608-33.218c2.423-4.847,7.295-7.858,12.713-7.858h40.214
	c12.905,0,23.404-10.499,23.404-23.404V23.404C512.001,10.499,501.502,0,488.597,0z"/>
<g>
	<path id="SVGCleanerId_0_1_" style="fill:#5683BF;" d="M488.597,0H190c-12.906,0-23.404,10.499-23.404,23.404v44.344v177.701
		h177.701h24.301c4.932,0,9.439,2.498,12.054,6.682l21.964,35.143c1.73,2.797,4.715,4.466,7.983,4.466l0.415-0.002l0.285-0.023
		c3.373-0.237,6.27-2.174,7.762-5.188l16.608-33.218c2.423-4.847,7.295-7.858,12.713-7.858h40.214
		c12.905,0,23.404-10.499,23.404-23.404V23.404C512.001,10.499,501.502,0,488.597,0z"/>
</g>
<path style="fill:#5683BF;" d="M100.513,478.681c-24.803,0-44.98-20.178-44.98-44.98c0-24.803,20.178-44.98,44.98-44.98
	s44.98,20.178,44.98,44.98C145.494,458.503,125.316,478.681,100.513,478.681z"/>
<path style="fill:#B72C11;" d="M393.035,433.701c0-20.188,13.369-37.309,31.717-42.982c-4.195-1.297-8.648-1.998-13.263-1.998
	c-24.803,0-44.98,20.178-44.98,44.98c0,24.803,20.178,44.98,44.98,44.98c4.615,0,9.068-0.701,13.263-1.998
	C406.404,471.01,393.035,453.889,393.035,433.701z"/>
<path style="fill:#486D9A;" d="M82.059,433.701c0-20.188,13.369-37.309,31.717-42.982c-4.195-1.297-8.648-1.998-13.263-1.998
	c-24.803,0-44.98,20.178-44.98,44.98c0,24.803,20.178,44.98,44.98,44.98c4.615,0,9.068-0.701,13.263-1.998
	C95.427,471.01,82.059,453.889,82.059,433.701z"/>
<path style="fill:#487CAF;" d="M351.76,36.88H166.595v30.869v177.701h177.701h24.301c2.34,0,4.576,0.579,6.568,1.616V60.284
	C375.165,47.378,364.666,36.88,351.76,36.88z"/>
<path style="fill:#CD5838;" d="M101.063,358.376l-0.282-0.021c-3.393-0.21-6.317-2.145-7.841-5.193l-16.607-33.219
	c-2.422-4.845-7.295-7.855-12.713-7.855H23.405c-12.906,0-23.404-10.499-23.404-23.404V90.042c0-12.906,10.499-23.404,23.404-23.404
	h298.597c12.906,0,23.404,10.499,23.404,23.404v198.64c0,12.905-10.499,23.404-23.404,23.404H143.406
	c-4.932,0-9.439,2.498-12.054,6.68l-21.985,35.177c-1.747,2.781-4.721,4.431-7.969,4.431H101.063z"/>
<path style="fill:#B72C11;" d="M121.258,324.842l-16.607-33.219c-2.423-4.845-7.295-7.855-12.713-7.855H51.724
	c-12.906,0-23.404-10.499-23.404-23.404V66.638h-4.915c-12.906,0-23.404,10.499-23.404,23.404v198.64
	c0,12.905,10.499,23.404,23.404,23.404h40.214c5.419,0,10.291,3.011,12.713,7.855l16.607,33.219
	c1.524,3.049,4.448,4.982,7.841,5.193l0.282,0.021h0.337c3.247,0,6.222-1.65,7.969-4.431l15.692-25.108
	C123.458,327.935,122.126,326.578,121.258,324.842z"/>
<g>
</g>
<g>
</g>
<g>
</g>
<g>
</g>
<g>
</g>
<g>
</g>
<g>
</g>
<g>
</g>
<g>
</g>
<g>
</g>
<g>
</g>
<g>
</g>
<g>
</g>
<g>
</g>
<g>
</g>
</svg>
