<?xml version="1.0" encoding="iso-8859-1"?>
<!-- Generator: Adobe Illustrator 19.0.0, SVG Export Plug-In . SVG Version: 6.00 Build 0)  -->
<svg version="1.1" id="Layer_1" xmlns="http://www.w3.org/2000/svg" xmlns:xlink="http://www.w3.org/1999/xlink" x="0px" y="0px"
	 viewBox="0 0 512 512" style="enable-background:new 0 0 512 512;" xml:space="preserve">
<path style="fill:#111449;" d="M337.582,338.931l-22.505,9.385l98.462,163.682h33.758
	C447.297,435.535,402.432,369.549,337.582,338.931z"/>
<path style="fill:#27467A;" d="M413.538,511.998c0-69.396-30.427-130.149-75.956-163.682L256,403.255l-81.582-64.324
	c-64.85,30.619-109.714,96.605-109.714,173.067h109.714L256,452.497l81.582,59.501H413.538z"/>
<path style="fill:#F0FEFF;" d="M293.727,324.432h-75.454c-15.362,3.077-30.061,7.987-43.855,14.501V512h163.165V338.934
	C323.788,332.421,309.088,327.509,293.727,324.432z"/>
<path style="fill:#FF0F47;" d="M293.728,324.431c-12.198-2.44-24.812-3.728-37.728-3.728l-11.253,50.637L256,512l33.758-38.797
	l-16.879-101.862L293.728,324.431z"/>
<path style="fill:#FF6176;" d="M218.272,324.431l20.849,46.909l-16.879,101.862L256,512V320.703
	C243.084,320.703,230.47,321.992,218.272,324.431z"/>
<g>
	<circle style="fill:#111449;" cx="371.341" cy="478.242" r="8.44"/>
	<circle style="fill:#111449;" cx="371.341" cy="444.484" r="8.44"/>
</g>
<path style="fill:#FFBE35;" d="M256,0l4.17,270.59l38.195-17.402l10.536-41.326c35.478-18.934,59.626-56.311,59.626-99.335
	C368.527,50.38,318.148,0,256,0z"/>
<path style="fill:#FFDB8A;" d="M272.403,222.604c35.63-10.782,62.366-55.966,62.366-110.077C334.769,50.38,299.503,0,256,0
	c-62.148,0-112.527,50.38-112.527,112.527c0,43.024,24.148,80.401,59.627,99.335l10.536,41.326l46.535,17.402L272.403,222.604z"/>
<path style="fill:#88ACB5;" d="M264.606,253.188l-25.485,33.758h33.758c9.284,0,18.755-7.36,21.049-16.356l4.437-17.402H264.606z"/>
<path style="fill:#A7CBCF;" d="M260.17,270.59l4.437-17.402h-50.97l4.437,17.402c2.293,8.995,11.766,16.356,21.049,16.356
	C248.407,286.946,257.876,279.586,260.17,270.59z"/>
<path style="fill:#FFFFFF;" d="M267.253,227.869h-22.505c-3.691,0-6.954-2.399-8.055-5.922l-28.132-90.022
	c-1.123-3.593,0.269-7.494,3.412-9.565c3.144-2.074,7.278-1.809,10.135,0.639l14.198,12.17l14.199-12.17
	c3.161-2.71,7.824-2.71,10.985,0l14.201,12.171l14.202-12.171c2.859-2.452,6.994-2.71,10.135-0.639
	c3.143,2.071,4.535,5.973,3.412,9.565l-28.132,90.022C274.207,225.47,270.944,227.869,267.253,227.869z M250.952,210.99h10.097
	l17.769-56.864c-2.846,1.137-6.181,0.659-8.62-1.431l-14.201-12.171l-14.199,12.171c-2.437,2.089-5.769,2.568-8.615,1.434
	L250.952,210.99z"/>
<path style="fill:#88ACB5;" d="M298.364,261.628h-84.73c-4.662,0-8.44-3.778-8.44-8.44s3.778-8.44,8.44-8.44h84.73
	c4.662,0,8.44,3.778,8.44,8.44S303.026,261.628,298.364,261.628z"/>
<g>
</g>
<g>
</g>
<g>
</g>
<g>
</g>
<g>
</g>
<g>
</g>
<g>
</g>
<g>
</g>
<g>
</g>
<g>
</g>
<g>
</g>
<g>
</g>
<g>
</g>
<g>
</g>
<g>
</g>
</svg>
