<?xml version="1.0" encoding="iso-8859-1"?>
<!-- Generator: Adobe Illustrator 19.0.0, SVG Export Plug-In . SVG Version: 6.00 Build 0)  -->
<svg version="1.1" id="Layer_1" xmlns="http://www.w3.org/2000/svg" xmlns:xlink="http://www.w3.org/1999/xlink" x="0px" y="0px"
	 viewBox="0 0 512 512" style="enable-background:new 0 0 512 512;" xml:space="preserve">
<path style="fill:#666666;" d="M464.827,347.591h-17.259v-30.212c0-4.278-3.479-7.757-7.757-7.757h-21.304
	c-4.278,0-7.757,3.479-7.757,7.757v30.212H393.49v-30.212c0-13.794,11.223-25.016,25.016-25.016h21.304
	c13.793,0,25.016,11.222,25.016,25.016V347.591z"/>
<path style="fill:#F76B4F;" d="M314.684,474.156h189.304c4.425,0,8.013-3.588,8.013-8.013V340.647c0-4.425-3.588-8.013-8.013-8.013
	H290.522L314.684,474.156z"/>
<circle style="fill:#FFFFFF;" cx="429.16" cy="402.823" r="36.254"/>
<rect y="151.418" style="fill:#808080;" width="213.412" height="243.926"/>
<path style="fill:#F2F2F2;" d="M383.88,396.507v104.451H133.051V396.507c0-39.304,31.86-71.164,71.153-71.164h108.512
	C352.02,325.343,383.88,357.203,383.88,396.507z"/>
<path style="fill:#CCCCCC;" d="M265.945,325.343v175.615h-14.958V325.343c0-4.131,3.348-7.479,7.479-7.479
	C262.596,317.864,265.945,321.212,265.945,325.343z"/>
<path style="fill:#E6E6E6;" d="M248.051,325.343h-43.844c-39.3,0-71.16,31.859-71.16,71.16v104.452h43.844V396.502
	C176.891,357.202,208.75,325.343,248.051,325.343z"/>
<path style="fill:#808080;" d="M188.108,405.12c-2.859,0-5.178-2.318-5.178-5.178V296.389c0-2.859,2.318-5.178,5.178-5.178
	s5.178,2.318,5.178,5.178v103.553C193.286,402.802,190.967,405.12,188.108,405.12z"/>
<g>
	<path style="fill:#E0B394;" d="M138.886,228.091c-14.267-0.633-25.624-12.403-25.624-26.82c0-14.82,12.012-26.843,26.843-26.843
		c1.335,0,2.646,0.092,3.935,0.288"/>
	<path style="fill:#E0B394;" d="M378.002,228.091c14.267-0.633,25.635-12.403,25.635-26.82c0-14.82-12.024-26.843-26.855-26.843
		c-1.335,0-2.658,0.104-3.935,0.288"/>
</g>
<path style="fill:#808080;" d="M328.482,424.68c-2.859,0-5.178-2.318-5.178-5.178V283.346c0-2.859,2.318-5.178,5.178-5.178
	c2.859,0,5.178,2.318,5.178,5.178v136.157C333.659,422.362,331.341,424.68,328.482,424.68z"/>
<path style="fill:#F7CBA4;" d="M344.519,309.798l-47.232,34.311c-23.15,16.822-54.504,16.822-77.665,0l-47.232-34.311
	c-24.956-18.133-38.464-48.118-35.496-78.827l8.192-84.776c5.649-58.393,54.711-102.944,113.368-102.944
	c29.329,0,56.264,11.138,76.572,29.57c5.132,4.66,9.838,9.78,14.037,15.314c12.472,16.35,20.653,36.232,22.759,58.059v0.012
	l8.192,84.764C382.983,261.68,369.475,291.665,344.519,309.798z"/>
<path style="fill:#E8BA97;" d="M166.289,247.673c-0.794,13.427,3.578,26.636,12.231,36.934l49.364,60.659
	c2.577,3.072,5.5,5.649,8.664,7.709c-5.937-2.071-11.644-5.04-16.925-8.871l-47.232-34.311
	c-24.956-18.133-38.453-48.118-35.484-78.827l8.181-84.776c5.592-57.817,53.756-102.069,111.665-102.909
	c-35.668,0.863-76.058,34.483-78.163,70.29L166.289,247.673z"/>
<path style="fill:#666666;" d="M371.822,146.195v0.012c-25.785,0-44.965-44.24-44.965-44.24l22.206-13.83
	C361.536,104.486,369.717,124.369,371.822,146.195z"/>
<g>
	<path style="fill:#71C5F4;" d="M211.695,468.403h-8.054c-2.859,0-5.178-2.318-5.178-5.178c0-2.859,2.318-5.178,5.178-5.178h2.876
		V423.53c0-10.152-8.259-18.409-18.409-18.409s-18.409,8.258-18.409,18.409v34.518h4.602c2.859,0,5.178,2.318,5.178,5.178
		c0,2.859-2.318,5.178-5.178,5.178h-9.78c-2.859,0-5.178-2.318-5.178-5.178V423.53c0-15.861,12.904-28.765,28.765-28.765
		s28.765,12.904,28.765,28.765v39.695C216.873,466.084,214.555,468.403,211.695,468.403z"/>
	<circle style="fill:#71C5F4;" cx="328.483" cy="444.716" r="25.218"/>
</g>
<circle style="fill:#E6F6FC;" cx="328.483" cy="444.716" r="13.54"/>
<polyline style="fill:#F2F2F2;" points="240.843,101.966 357.961,101.966 357.961,11.042 158.954,11.042 158.954,101.966 "/>
<polyline style="fill:#CCCCCC;" points="173.867,101.966 195.195,101.966 195.195,11.042 158.954,11.042 158.954,101.966 "/>
<g>
	<polygon style="fill:#F76B4F;" points="284.729,47.874 267.087,47.874 267.087,30.232 249.828,30.232 249.828,47.874 
		232.186,47.874 232.186,65.133 249.828,65.133 249.828,82.776 267.087,82.776 267.087,65.133 284.729,65.133 	"/>
	<polygon style="fill:#F76B4F;" points="453.704,395.915 436.062,395.915 436.062,378.273 422.255,378.273 422.255,395.915 
		404.612,395.915 404.612,409.723 422.255,409.723 422.255,427.366 436.062,427.366 436.062,409.723 453.704,409.723 	"/>
</g>
<path style="fill:#C0E7F9;" d="M217.551,96.789c0,27.637-22.402,50.051-50.039,50.051c-11.506,0-22.103-3.878-30.56-10.413
	c-11.851-9.147-19.491-23.507-19.491-39.638c0-27.637,22.402-50.051,50.051-50.051c10.24,0,19.756,3.072,27.683,8.353
	C208.668,64.066,217.551,79.392,217.551,96.789z"/>
<path style="fill:#E6F6FC;" d="M217.551,96.789c0,27.637-22.402,50.051-50.039,50.051c-11.506,0-22.103-3.878-30.56-10.413
	l58.243-81.335C208.668,64.066,217.551,79.392,217.551,96.789z"/>
<path style="fill:#B3B3B3;" d="M81.678,357.946c-3.496,0-6.328-2.833-6.328-6.328V207.794c0-3.495,2.833-6.328,6.328-6.328
	c3.495,0,6.328,2.833,6.328,6.328v143.824C88.007,355.113,85.174,357.946,81.678,357.946z"/>
<path style="fill:#FFFFFF;" d="M179.006,96.789c0,6.351-5.148,11.501-11.499,11.501c-2.644,0-5.079-0.891-7.022-2.393
	c-2.723-2.102-4.479-5.402-4.479-9.108c0-6.351,5.148-11.501,11.501-11.501c2.353,0,4.54,0.706,6.362,1.919
	C176.965,89.27,179.006,92.792,179.006,96.789z"/>
<g>
	<path style="fill:#B3B3B3;" d="M58.666,226.778H31.052c-3.496,0-6.328-2.833-6.328-6.328s2.833-6.328,6.328-6.328h27.614
		c3.496,0,6.328,2.833,6.328,6.328S62.162,226.778,58.666,226.778z"/>
	<path style="fill:#B3B3B3;" d="M58.666,292.746H31.052c-3.496,0-6.328-2.833-6.328-6.328c0-3.496,2.833-6.328,6.328-6.328h27.614
		c3.496,0,6.328,2.833,6.328,6.328C64.995,289.914,62.162,292.746,58.666,292.746z"/>
	<path style="fill:#B3B3B3;" d="M58.666,259.762H31.052c-3.496,0-6.328-2.833-6.328-6.328c0-3.495,2.833-6.328,6.328-6.328h27.614
		c3.496,0,6.328,2.833,6.328,6.328C64.995,256.93,62.162,259.762,58.666,259.762z"/>
	<path style="fill:#B3B3B3;" d="M58.666,325.729H31.052c-3.496,0-6.328-2.833-6.328-6.328c0-3.496,2.833-6.328,6.328-6.328h27.614
		c3.496,0,6.328,2.833,6.328,6.328C64.995,322.897,62.162,325.729,58.666,325.729z"/>
	<path style="fill:#B3B3B3;" d="M121.949,292.746h-14.958c-3.496,0-6.328-2.833-6.328-6.328c0-3.496,2.833-6.328,6.328-6.328h14.958
		c3.496,0,6.328,2.833,6.328,6.328C128.277,289.914,125.445,292.746,121.949,292.746z"/>
	<path style="fill:#B3B3B3;" d="M112.744,259.762h-5.753c-3.496,0-6.328-2.833-6.328-6.328c0-3.495,2.833-6.328,6.328-6.328h5.753
		c3.496,0,6.328,2.833,6.328,6.328C119.073,256.93,116.24,259.762,112.744,259.762z"/>
	<path style="fill:#B3B3B3;" d="M134.606,325.729h-27.614c-3.496,0-6.328-2.833-6.328-6.328c0-3.496,2.833-6.328,6.328-6.328h27.614
		c3.496,0,6.328,2.833,6.328,6.328C140.934,322.897,138.101,325.729,134.606,325.729z"/>
</g>
<circle style="fill:#CCCCCC;" cx="235.584" cy="378.557" r="7.767"/>
<path style="fill:#F2F2F2;" d="M303.5,269.919c0,0-0.656,1.611-2.037,4.154c-0.334,0.656-0.725,1.346-1.162,2.094
	c-0.518,0.736-1.116,1.484-1.76,2.324c-0.644,0.84-1.381,1.691-2.163,2.635c-0.276,0.357-0.575,0.656-0.897,0.966
	c-0.115,0.115-0.242,0.23-0.368,0.345c-0.449,0.414-0.909,0.851-1.381,1.289c-0.943,0.886-1.968,1.76-3.038,2.681
	c-1.128,0.828-2.336,1.611-3.578,2.462c-0.621,0.426-1.266,0.84-1.921,1.254c-0.656,0.391-1.358,0.713-2.071,1.07
	c-1.404,0.713-2.865,1.404-4.372,2.094c-3.107,1.059-6.34,2.301-9.792,2.819c-3.406,0.794-6.961,0.92-10.505,1.093
	c-3.544-0.173-7.099-0.288-10.505-1.082c-3.452-0.518-6.685-1.76-9.792-2.819c-1.507-0.679-2.969-1.369-4.384-2.083
	c-0.702-0.357-1.404-0.679-2.071-1.07c-0.644-0.426-1.289-0.828-1.91-1.254c-1.243-0.851-2.462-1.645-3.59-2.462
	c-1.07-0.92-2.083-1.806-3.038-2.681c-0.472-0.449-0.92-0.874-1.369-1.3c-0.161-0.15-0.322-0.299-0.483-0.449
	c-0.276-0.276-0.541-0.541-0.771-0.851c-0.748-0.909-1.473-1.749-2.106-2.577c-0.621-0.84-1.231-1.576-1.737-2.313
	c-0.46-0.782-0.886-1.496-1.243-2.152c-1.438-2.623-2.037-4.188-2.037-4.188s1.703,0.518,4.326,1.576
	c0.667,0.253,1.358,0.564,2.129,0.874c0.817,0.242,1.657,0.552,2.554,0.851c0.909,0.299,1.818,0.667,2.784,1.013
	c0.955,0.368,2.037,0.61,3.107,0.932c1.07,0.311,2.14,0.69,3.256,1.024c1.162,0.253,2.324,0.552,3.521,0.84
	c0.598,0.138,1.185,0.311,1.783,0.472c0.61,0.138,1.243,0.219,1.864,0.345c1.254,0.219,2.508,0.472,3.762,0.759
	c2.612,0.242,5.189,0.817,7.882,0.921c2.658,0.345,5.373,0.253,8.066,0.414c2.704-0.161,5.419-0.058,8.077-0.403
	c2.692-0.092,5.27-0.679,7.882-0.92c1.254-0.276,2.508-0.529,3.762-0.748c0.621-0.127,1.254-0.207,1.864-0.345
	c0.598-0.173,1.197-0.334,1.783-0.472c1.197-0.288,2.359-0.598,3.521-0.84c1.128-0.334,2.198-0.713,3.268-1.024
	c1.059-0.322,2.163-0.575,3.084-0.932c0.944-0.322,1.829-0.679,2.727-0.955c0.886-0.299,1.714-0.598,2.531-0.84
	c0.805-0.345,1.519-0.679,2.198-0.944C301.832,270.402,303.5,269.919,303.5,269.919z"/>
<g>
	<path style="fill:#4D4D4D;" d="M295.48,282.092c-0.115,0.115-0.242,0.23-0.368,0.345c-0.449,0.414-0.909,0.851-1.381,1.289
		c-0.943,0.886-1.968,1.76-3.038,2.681c-1.128,0.828-2.336,1.611-3.578,2.462c-0.621,0.426-1.266,0.84-1.921,1.254
		c-0.656,0.391-1.358,0.713-2.071,1.07c-1.404,0.713-2.865,1.404-4.372,2.094c-3.107,1.059-6.34,2.301-9.792,2.819
		c-3.406,0.794-6.961,0.92-10.505,1.093c-3.544-0.173-7.099-0.288-10.505-1.082c-3.452-0.518-6.685-1.76-9.792-2.819
		c-1.507-0.679-2.969-1.369-4.384-2.083c-0.702-0.357-1.404-0.679-2.071-1.07c-0.644-0.426-1.289-0.828-1.91-1.254
		c-1.243-0.851-2.462-1.645-3.59-2.462c-1.07-0.92-2.083-1.806-3.038-2.681c-0.472-0.449-0.92-0.874-1.369-1.3
		c-0.161-0.15-0.322-0.299-0.483-0.449c0.368,0.127,0.736,0.253,1.116,0.38c0.909,0.299,1.818,0.656,2.784,1.001
		c0.955,0.38,2.037,0.621,3.107,0.944c1.07,0.311,2.14,0.679,3.256,1.024c1.162,0.242,2.324,0.552,3.521,0.84
		c0.598,0.138,1.185,0.299,1.783,0.46c0.61,0.138,1.243,0.219,1.864,0.345c1.254,0.219,2.508,0.483,3.762,0.759
		c2.612,0.253,5.189,0.828,7.882,0.92c2.658,0.357,5.373,0.253,8.066,0.426c2.704-0.161,5.419-0.058,8.077-0.414
		c2.692-0.092,5.27-0.667,7.882-0.909c1.254-0.276,2.508-0.541,3.762-0.759c0.621-0.127,1.254-0.207,1.864-0.345
		c0.598-0.161,1.197-0.322,1.783-0.46c1.197-0.288,2.359-0.598,3.521-0.84c1.128-0.345,2.198-0.725,3.268-1.024
		c1.059-0.322,2.163-0.587,3.084-0.932c0.944-0.334,1.829-0.679,2.727-0.966C294.778,282.334,295.135,282.207,295.48,282.092z"/>
	<path style="fill:#4D4D4D;" d="M207.237,231.376c-4.766,0-8.629-3.864-8.629-8.629v-13.803c0-4.766,3.864-8.629,8.629-8.629
		c4.766,0,8.629,3.864,8.629,8.629v13.803C215.866,227.512,212.002,231.376,207.237,231.376z"/>
</g>
<g>
	<path style="fill:#666666;" d="M289.949,175.577c0,0,0.023-0.229,0.1-0.622c0.089-0.381,0.178-0.983,0.372-1.664
		c0.086-0.352,0.198-0.719,0.326-1.123c0.167-0.41,0.391-0.822,0.629-1.289c0.236-0.469,0.534-0.933,0.847-1.454
		c0.315-0.529,0.691-0.931,1.077-1.442c0.391-0.491,0.832-0.966,1.292-1.477c0.487-0.461,1.015-0.916,1.576-1.373
		c1.099-0.968,2.442-1.667,3.841-2.445c1.447-0.612,2.983-1.276,4.629-1.583c1.629-0.423,3.338-0.524,5.042-0.603
		c1.704,0.078,3.414,0.169,5.044,0.59c1.646,0.304,3.184,0.971,4.632,1.579c1.4,0.777,2.744,1.475,3.844,2.444
		c0.56,0.458,1.09,0.914,1.577,1.373c0.46,0.512,0.899,0.992,1.292,1.48c0.38,0.509,0.774,0.926,1.063,1.435
		c0.29,0.506,0.571,0.96,0.798,1.419c0.227,0.46,0.446,0.865,0.612,1.274c0.151,0.426,0.284,0.811,0.383,1.176
		c0.219,0.705,0.31,1.312,0.394,1.691c0.074,0.392,0.09,0.616,0.09,0.616s-0.238-0.006-0.641-0.045
		c-0.391-0.051-0.999-0.076-1.669-0.174c-0.347-0.036-0.702-0.1-1.092-0.152c-0.415-0.02-0.825-0.077-1.27-0.112
		c-0.873-0.092-1.785-0.229-2.787-0.268c-0.492-0.032-0.97-0.104-1.469-0.145c-0.517-0.007-1.026-0.033-1.533-0.071
		c-0.992-0.129-2.07-0.053-3.071-0.178c-1.053,0.038-2.061-0.091-3.104-0.059c-1.026-0.077-2.064,0.005-3.094-0.068
		c-1.03,0.07-2.068-0.02-3.096,0.055c-1.045-0.037-2.053,0.097-3.108,0.054c-1.002,0.124-2.083,0.047-3.074,0.177
		c-0.506,0.038-1.016,0.066-1.534,0.071c-0.499,0.041-0.975,0.117-1.469,0.147c-1.022,0.055-1.871,0.152-2.723,0.226
		c-0.448,0.035-0.866,0.067-1.254,0.095c-0.413,0.075-0.79,0.158-1.149,0.205c-0.696,0.123-1.305,0.152-1.691,0.201
		C290.18,175.577,289.949,175.577,289.949,175.577z"/>
	<path style="fill:#666666;" d="M187.508,175.577c0,0,0.023-0.229,0.1-0.622c0.089-0.381,0.178-0.983,0.372-1.664
		c0.086-0.352,0.198-0.719,0.326-1.123c0.167-0.41,0.391-0.822,0.629-1.289c0.236-0.469,0.534-0.933,0.847-1.454
		c0.315-0.529,0.691-0.931,1.077-1.442c0.391-0.491,0.832-0.966,1.292-1.477c0.487-0.461,1.015-0.916,1.576-1.373
		c1.099-0.968,2.442-1.667,3.841-2.445c1.447-0.612,2.983-1.276,4.629-1.583c1.629-0.423,3.338-0.524,5.042-0.603
		c1.704,0.078,3.414,0.169,5.044,0.59c1.646,0.304,3.184,0.971,4.632,1.579c1.4,0.777,2.744,1.475,3.844,2.444
		c0.56,0.458,1.09,0.914,1.577,1.373c0.46,0.512,0.899,0.992,1.292,1.48c0.38,0.509,0.774,0.926,1.063,1.435
		c0.29,0.506,0.571,0.96,0.799,1.419c0.227,0.46,0.446,0.865,0.612,1.274c0.151,0.426,0.284,0.811,0.383,1.176
		c0.219,0.705,0.31,1.312,0.393,1.691c0.074,0.392,0.09,0.616,0.09,0.616s-0.238-0.006-0.641-0.045
		c-0.391-0.051-0.999-0.076-1.67-0.174c-0.347-0.036-0.702-0.1-1.092-0.152c-0.415-0.02-0.825-0.077-1.27-0.112
		c-0.873-0.092-1.785-0.229-2.787-0.268c-0.492-0.032-0.97-0.104-1.469-0.145c-0.517-0.007-1.026-0.033-1.533-0.071
		c-0.992-0.129-2.07-0.053-3.071-0.178c-1.053,0.038-2.061-0.091-3.104-0.059c-1.026-0.077-2.064,0.005-3.094-0.068
		c-1.03,0.07-2.068-0.02-3.096,0.055c-1.045-0.037-2.053,0.097-3.108,0.054c-1.002,0.124-2.083,0.047-3.074,0.177
		c-0.506,0.038-1.016,0.066-1.534,0.071c-0.499,0.041-0.975,0.117-1.469,0.147c-1.022,0.055-1.871,0.152-2.723,0.226
		c-0.448,0.035-0.866,0.067-1.254,0.095c-0.413,0.075-0.79,0.158-1.149,0.205c-0.696,0.123-1.305,0.152-1.691,0.201
		C187.738,175.577,187.508,175.577,187.508,175.577z"/>
</g>
<path style="fill:#4D4D4D;" d="M309.679,231.376c-4.766,0-8.629-3.864-8.629-8.629v-13.803c0-4.766,3.864-8.629,8.629-8.629
	c4.766,0,8.629,3.864,8.629,8.629v13.803C318.308,227.512,314.444,231.376,309.679,231.376z"/>
<path style="fill:#E8BA97;" d="M271.689,196.288v40.846c0,7.307-5.924,13.232-13.232,13.232l0,0
	c-7.307,0-13.232-5.924-13.232-13.232v-40.846"/>
<rect x="16.68" y="160.139" style="fill:#E6E6E6;" width="41.421" height="33.551"/>
<g>
</g>
<g>
</g>
<g>
</g>
<g>
</g>
<g>
</g>
<g>
</g>
<g>
</g>
<g>
</g>
<g>
</g>
<g>
</g>
<g>
</g>
<g>
</g>
<g>
</g>
<g>
</g>
<g>
</g>
</svg>
