<?xml version="1.0" encoding="iso-8859-1"?>
<!-- Generator: Adobe Illustrator 19.0.0, SVG Export Plug-In . SVG Version: 6.00 Build 0)  -->
<svg version="1.1" id="Layer_1" xmlns="http://www.w3.org/2000/svg" xmlns:xlink="http://www.w3.org/1999/xlink" x="0px" y="0px"
	 viewBox="0 0 512 512" style="enable-background:new 0 0 512 512;" xml:space="preserve">
<g>
	<rect x="127.992" y="231.685" style="fill:#666363;" width="256.017" height="48.652"/>
	<path style="fill:#666363;" d="M485.493,231.113c14.635,0,26.507,11.871,26.507,26.518s-11.871,26.507-26.507,26.507V231.113z"/>
	<path style="fill:#666363;" d="M26.518,231.113v53.025C11.871,284.138,0,272.278,0,257.631
		C0,242.984,11.871,231.113,26.518,231.113z"/>
</g>
<path style="fill:#808080;" d="M486.626,284.138v26.62c0,17.003-13.786,30.789-30.789,30.789c-8.507,0-16.199-3.444-21.76-9.017
	c-5.573-5.573-9.017-13.265-9.017-21.772l-35.388-62.382l35.388-47.134c0-17.003,13.774-30.789,30.777-30.789
	s30.789,13.786,30.789,30.789v29.871V284.138z"/>
<path style="fill:#999999;" d="M425.06,310.758v21.387c0,17.003-13.786,30.777-30.777,30.777c-8.507,0-16.199-3.444-21.772-9.017
	c-5.573-5.562-9.017-13.253-9.017-21.76v-51.813v-48.652v-51.824c0-17.003,13.786-30.777,30.789-30.777
	c16.992,0,30.777,13.774,30.777,30.777v21.387V310.758z"/>
<path style="fill:#808080;" d="M86.951,201.242l14.998,56.197l-14.998,53.319c0,17.003-13.786,30.789-30.789,30.789
	s-30.777-13.786-30.777-30.789v-26.62v-53.025v-29.871c0-17.003,13.774-30.789,30.777-30.789c8.496,0,16.199,3.444,21.772,9.017
	C83.508,185.043,86.951,192.735,86.951,201.242z"/>
<g>
	<path style="fill:#999999;" d="M486.626,277.928v20.746c0,13.25-13.786,23.994-30.789,23.994c-8.507,0-16.199-2.684-21.76-7.027
		c-5.573-4.343-9.017-10.338-9.017-16.967l-35.388-48.615l35.388-36.732c0-13.25,13.774-23.994,30.777-23.994
		s30.789,10.743,30.789,23.994v23.278V277.928z"/>
	<path style="fill:#999999;" d="M86.951,213.326l14.998,43.795l-14.998,41.552c0,13.25-13.786,23.994-30.789,23.994
		s-30.777-10.743-30.777-23.994v-20.746v-41.322v-23.278c0-13.25,13.774-23.994,30.777-23.994c8.496,0,16.199,2.684,21.772,7.027
		C83.508,200.703,86.951,206.697,86.951,213.326z"/>
	<path style="fill:#999999;" d="M148.506,280.332v51.813c0,17.003-13.774,30.777-30.777,30.777s-30.777-13.774-30.777-30.777
		v-21.387V201.242v-21.387c0-17.003,13.774-30.777,30.777-30.777c8.507,0,16.199,3.444,21.76,9.017
		c5.573,5.562,9.017,13.253,9.017,21.76v51.824V280.332z"/>
</g>
<path style="fill:#B3B3B3;" d="M425.06,299.155v16.856c0,13.401-13.786,24.256-30.777,24.256c-8.507,0-16.199-2.714-21.772-7.106
	c-5.573-4.384-9.017-10.445-9.017-17.15v-40.834v-38.343V195.99c0-13.401,13.786-24.256,30.789-24.256
	c16.992,0,30.777,10.855,30.777,24.256v16.856V299.155z"/>
<path style="fill:#CCCCCC;" d="M425.06,233.057v3.006c0,2.39-13.786,4.327-30.777,4.327c-8.507,0-16.199-0.484-21.772-1.268
	c-5.573-0.782-9.017-1.863-9.017-3.06v-7.284v-6.84v-7.286c0-2.39,13.786-4.327,30.789-4.327c16.992,0,30.777,1.937,30.777,4.327
	v3.006V233.057z"/>
<path style="fill:#B3B3B3;" d="M148.506,275.177v40.834c0,13.401-13.774,24.256-30.777,24.256s-30.777-10.855-30.777-24.256v-16.856
	v-86.311v-16.856c0-13.401,13.774-24.256,30.777-24.256c8.507,0,16.199,2.714,21.76,7.106c5.573,4.384,9.017,10.445,9.017,17.15
	v40.843V275.177z"/>
<path style="fill:#CCCCCC;" d="M148.517,233.057v3.006c0,2.39-13.786,4.327-30.777,4.327c-8.507,0-16.199-0.484-21.772-1.268
	c-5.573-0.782-9.017-1.863-9.017-3.06v-7.284v-6.84v-7.286c0-2.39,13.786-4.327,30.789-4.327c16.992,0,30.777,1.937,30.777,4.327
	v3.006V233.057z"/>
<g>
	<path style="fill:#B3B3B3;" d="M86.951,245.574v3.006c0,2.39-13.786,4.327-30.777,4.327c-8.507,0-16.199-0.484-21.772-1.268
		c-5.573-0.782-9.017-1.863-9.017-3.06v-7.284v-6.84v-7.286c0-2.39,13.786-4.327,30.789-4.327c16.992,0,30.777,1.937,30.777,4.327
		v3.006V245.574z"/>
	<path style="fill:#B3B3B3;" d="M486.626,245.574v3.006c0,2.39-13.786,4.327-30.777,4.327c-8.507,0-16.199-0.484-21.772-1.268
		c-5.573-0.782-9.017-1.863-9.017-3.06v-7.284v-6.84v-7.286c0-2.39,13.786-4.327,30.789-4.327c16.992,0,30.777,1.937,30.777,4.327
		v3.006V245.574z"/>
</g>
<g>
</g>
<g>
</g>
<g>
</g>
<g>
</g>
<g>
</g>
<g>
</g>
<g>
</g>
<g>
</g>
<g>
</g>
<g>
</g>
<g>
</g>
<g>
</g>
<g>
</g>
<g>
</g>
<g>
</g>
</svg>
